<?xml version="1.0" encoding="UTF-8"?>
<svg xmlns="http://www.w3.org/2000/svg" xmlns:xlink="http://www.w3.org/1999/xlink" width="40px" height="40px" viewBox="0 0 40 40" version="1.1">
<g id="surface1">
<path style=" stroke:none;fill-rule:nonzero;fill:rgb(0%,69.803922%,62.745098%);fill-opacity:1;" d="M 20 3.332031 C 10.796875 3.332031 3.332031 10.796875 3.332031 20 C 3.332031 29.203125 10.796875 36.667969 20 36.667969 C 29.203125 36.667969 36.667969 29.203125 36.667969 20 C 36.667969 10.796875 29.203125 3.332031 20 3.332031 Z M 26.183594 22.851562 C 25.871094 23.164062 25.445312 23.34375 25 23.34375 C 24.554688 23.34375 24.128906 23.164062 23.816406 22.851562 L 20 19.015625 L 16.183594 22.851562 C 15.53125 23.503906 14.46875 23.503906 13.816406 22.851562 C 13.164062 22.195312 13.164062 21.136719 13.816406 20.484375 L 18.816406 15.484375 C 19.128906 15.167969 19.554688 14.992188 20 14.992188 C 20.445312 14.992188 20.871094 15.167969 21.183594 15.484375 L 26.183594 20.484375 C 26.5 20.796875 26.675781 21.222656 26.675781 21.667969 C 26.675781 22.109375 26.5 22.535156 26.183594 22.851562 Z M 26.183594 22.851562 "/>
</g>
</svg>
